<?xml version="1.0" encoding="UTF-8"?>
<svg width="400px" height="150px" viewBox="0 0 400 150" version="1.1" xmlns="http://www.w3.org/2000/svg" xmlns:xlink="http://www.w3.org/1999/xlink">
    <!-- Generator: Sketch 55.2 (78181) - https://sketchapp.com -->
    <title>Artboard Copy 11</title>
    <desc>Created with Sketch.</desc>
    <g id="Artboard-Copy-11" stroke="none" stroke-width="1" fill="none" fill-rule="evenodd">
        <g id="HnK" transform="translate(170.000000, 40.000000)" fill-rule="nonzero">
            <polygon id="H" fill="#333333" points="14 0 14 28.7 56 28.7 56 0 70 0 70 70 56 70 56 41.3 14 41.3 14 70 0 70 0 0"></polygon>
            <polygon id="n" fill="#00BAC9" points="136.4 70 93 21.7 93 70 79 70 79 0 91.6 0 135 48.3 135 0 149 0 149 70"></polygon>
            <polygon id="K" fill="#333333" points="212.46 70 186.98 38.22 172 51.66 172 70 158 70 158 0 172 0 172 33.88 209.66 0 229.54 0 196.92 29.26 229.54 70"></polygon>
        </g>
        <g id="Group" transform="translate(-14.000000, -9.000000)">
            <polygon id="Rectangle--Rectangle-Copy--Rectangle--Rectangle-Copy-2" fill="#83A759" points="14 46.0003222 42 29.8345146 42 137.001611 14 120.835803"></polygon>
            <polygon id="Rectangle--Rectangle-Copy--Rectangle--Rectangle-Copy-2-Copy" fill="#DA2214" transform="translate(53.404714, 39.583548) rotate(60.000000) translate(-53.404714, -39.583548) " points="39.4047139 2.16580754 67.4047139 -14 67.4047139 93.1670962 39.4047139 77.0012887"></polygon>
            <polygon id="Rectangle--Rectangle-Copy--Rectangle--Rectangle-Copy-2-Copy-Copy" fill="#FFCF2C" transform="translate(104.404714, 39.583548) rotate(120.000000) translate(-104.404714, -39.583548) " points="90.4047139 2.16580754 118.404714 -14 118.404714 93.1670962 90.4047139 77.0012887"></polygon>
            <polygon id="Rectangle--Rectangle-Copy--Rectangle--Rectangle-Copy-2-Copy-Copy-Copy" fill="#83A759" transform="translate(129.800000, 83.750967) scale(-1, 1) translate(-129.800000, -83.750967) " points="115.8 46.3332259 143.8 30.1674184 143.8 137.334515 115.8 121.168707"></polygon>
            <polygon id="Rectangle--Rectangle-Copy--Rectangle--Rectangle-Copy-2-Copy-Copy-Copy-Copy" fill="#0097D7" transform="translate(104.404714, 127.583548) scale(-1, 1) rotate(-60.000000) translate(-104.404714, -127.583548) " points="90.4047139 90.1658075 118.404714 74 118.404714 181.167096 90.4047139 165.001289"></polygon>
            <polygon id="Rectangle--Rectangle-Copy--Rectangle--Rectangle-Copy-2-Copy-Copy-Copy-Copy-Copy--Rectangle" fill="#46629B" points="42 137.164841 42 104.833226 106.809428 142.250967 78.8094278 158.416774 42 137.164841"></polygon>
        </g>
    </g>
</svg>