<?xml version="1.0" encoding="UTF-8"?>
<svg width="150px" height="150px" viewBox="0 0 150 150" version="1.1" xmlns="http://www.w3.org/2000/svg" xmlns:xlink="http://www.w3.org/1999/xlink">
    <!-- Generator: Sketch 55.2 (78181) - https://sketchapp.com -->
    <title>Artboard Copy 10</title>
    <desc>Created with Sketch.</desc>
    <g id="Artboard-Copy-10" stroke="none" stroke-width="1" fill="none" fill-rule="evenodd">
        <path d="M12.9249094,117.104536 L120.670974,134.495606 C108.023132,144.219066 92.1866707,150 75,150 C49.1858311,150 26.4176907,136.958402 12.9249094,117.104536 L12.9249094,117.104536 Z M8.65047128,110.00001 C3.12731746,99.5514183 0,87.6409212 0,75 C0,33.5786438 33.5786438,0 75,0 C116.421356,0 150,33.5786438 150,75 C150,87.6409212 146.872683,99.5514183 141.349529,110.00001 L8.65046594,110.00001 L8.65047128,110.00001 Z" id="Oval--Rectangle" fill="#87C239"></path>
        <path d="M13.4,37.3 L30.3,37.3 L23.9,89.3 L45.2,89.3 L43.3,104 L5.2,104 L13.4,37.3 Z M48.5666667,59.3 L65.0666667,59.3 L59.5666667,104 L43.0666667,104 L48.5666667,59.3 Z M49.3666667,40.7 C49.3666667,35.7 53.3666667,31.7 58.3666667,31.7 C63.3666667,31.7 67.3666667,35.7 67.3666667,40.7 C67.3666667,45.7 63.3666667,49.7 58.3666667,49.7 C53.3666667,49.7 49.3666667,45.7 49.3666667,40.7 Z M67.3333333,59.3 L83.8333333,59.3 L82.4333333,65.1 C88.5333333,59.7 92.5333333,58 98.6333333,58 C107.733333,58 112.733333,62.8 112.733333,71.6 C112.733333,73.5 112.633333,75.8 112.233333,78.9 L109.133333,104 L92.6333333,104 L95.1333333,84.3 C95.4333333,81.7 95.5333333,80.4 95.5333333,78.8 C95.5333333,74.2 93.3333333,71.7 89.5333333,71.7 C84.2333333,71.7 81.9333333,74.9 80.8333333,83.8 L78.3333333,104 L61.8333333,104 L67.3333333,59.3 Z M162.1,85 L128.7,85 C128.7,86.6 128.7,90.5 131,92.6 C131.8,93.4 133.4,94.3 136.1,94.3 C137.5,94.3 139,94 140.3,93.1 C141.6,92.2 142.2,91.1 142.5,90.1 L160.5,90.1 C159.4,93.4 157.6,96.2 155.6,98.2 C149.9,104.1 141.5,105.3 136.2,105.3 C126.8,105.3 121.6,101.7 119.1,99.4 C116.2,96.6 113,91.6 113,83.6 C113,75 116.5,68.8 120.3,65.1 C124.2,61.3 130.3,58 139.4,58 C147.8,58 153.1,61 156.3,64.2 C160.9,68.8 162.3,75.4 162.3,81.2 C162.3,82.5 162.2,83.8 162.1,85 Z M129.8,75.7 L145.4,75.7 C145.3,73.6 144.4,71.6 143.1,70.4 C141.9,69.3 140.1,68.6 137.9,68.6 C135.6,68.6 133.5,69.5 132.2,70.8 C130.9,72.1 130.1,74.1 129.8,75.7 Z" id="Line" fill="#FFFFFF" fill-rule="nonzero"></path>
    </g>
</svg>