<?xml version="1.0" encoding="UTF-8"?>
<svg width="317px" height="150px" viewBox="0 0 317 150" version="1.1" xmlns="http://www.w3.org/2000/svg" xmlns:xlink="http://www.w3.org/1999/xlink">
    <!-- Generator: Sketch 55.2 (78181) - https://sketchapp.com -->
    <title>Artboard Copy 15</title>
    <desc>Created with Sketch.</desc>
    <g id="Artboard-Copy-15" stroke="none" stroke-width="1" fill="none" fill-rule="evenodd">
        <path d="M61.184,43.968 L84.704,43.968 L76.832,108 L54.368,108 L43.232,85.92 C40.928,81.216 39.488,77.568 38.144,72.96 L37.76,71.808 L36.992,71.808 C37.28,74.688 37.376,76.8 37.376,79.488 C37.376,81.984 37.28,84.288 37.088,85.92 L35.072,108 L11.744,108 L19.616,43.968 L42.944,43.968 L54.272,68.064 C55.712,71.136 56.768,73.92 58.304,79.392 L58.88,81.504 L59.84,81.408 L59.648,79.296 C59.36,75.744 59.168,73.152 59.168,70.464 C59.168,67.872 59.264,65.376 59.552,62.88 L61.184,43.968 Z M127.04,99.456 L111.296,99.456 L108.224,108 L83.264,108 L112.832,43.968 L139.328,43.968 L151.232,108 L127.52,108 L127.04,99.456 Z M120.992,73.248 L116.672,84.864 L125.504,84.864 L124.544,73.248 C124.448,72.192 124.352,70.56 124.352,68.736 C124.352,66.432 124.448,65.76 124.64,63.648 L123.872,63.648 C123.008,67.392 122.432,69.504 120.992,73.248 Z M207.104,43.968 L230.624,43.968 L222.752,108 L200.288,108 L189.152,85.92 C186.848,81.216 185.408,77.568 184.064,72.96 L183.68,71.808 L182.912,71.808 C183.2,74.688 183.296,76.8 183.296,79.488 C183.296,81.984 183.2,84.288 183.008,85.92 L180.992,108 L157.664,108 L165.536,43.968 L188.864,43.968 L200.192,68.064 C201.632,71.136 202.688,73.92 204.224,79.392 L204.8,81.504 L205.76,81.408 L205.568,79.296 C205.28,75.744 205.088,73.152 205.088,70.464 C205.088,67.872 205.184,65.376 205.472,62.88 L207.104,43.968 Z M296.672,51.264 C303.68,57.024 307.328,65.376 307.328,75.456 C307.328,94.848 292.256,109.632 272.288,109.632 C252.032,109.632 236.48,95.424 236.48,76.896 C236.48,57.504 252.032,42.432 271.808,42.432 C281.024,42.432 289.952,45.6 296.672,51.264 Z M271.232,89.472 C278.528,89.472 283.904,83.616 283.904,75.84 C283.904,69.024 279.008,63.648 272.576,63.648 C265.568,63.648 259.904,69.696 259.904,77.088 C259.904,84.192 264.704,89.472 271.232,89.472 Z" id="NANO" fill="#333333" fill-rule="nonzero"></path>
    </g>
</svg>