<?xml version="1.0" encoding="UTF-8"?>
<svg width="417px" height="150px" viewBox="0 0 417 150" version="1.1" xmlns="http://www.w3.org/2000/svg" xmlns:xlink="http://www.w3.org/1999/xlink">
    <!-- Generator: Sketch 55.2 (78181) - https://sketchapp.com -->
    <title>Artboard Copy 13</title>
    <desc>Created with Sketch.</desc>
    <g id="Artboard-Copy-13" stroke="none" stroke-width="1" fill="none" fill-rule="evenodd">
        <g id="Group" transform="translate(0.000000, 25.000000)" fill="#FF1829" fill-rule="nonzero">
            <polygon id="Rectangle-Copy-8" transform="translate(50.000000, 50.000000) scale(1, -1) translate(-50.000000, -50.000000) " points="71.4654591 0 100 0 27.625012 100 0 100"></polygon>
            <polygon id="Rectangle-Copy-9" points="71.4654591 0 100 0 27.625012 100 0 100"></polygon>
        </g>
        <polygon id="Rectangle" fill="#00BAC9" points="123 50 123 100 104 75"></polygon>
        <path d="M177.76,90.84 C184.96,90.84 190.528,86.136 192.16,79.32 L202.432,79.32 C200.512,91.512 190.72,99.96 177.76,99.96 C163.36,99.96 152.8,89.4 152.8,75 C152.8,60.6 163.36,50.04 177.76,50.04 C190.72,50.04 200.512,58.488 202.432,70.68 L192.16,70.68 C190.528,63.768 184.96,59.16 177.76,59.16 C169.12,59.16 162.88,65.88 162.88,75 C162.88,84.12 169.12,90.84 177.76,90.84 Z M236.992,50.04 C251.392,50.04 261.952,60.6 261.952,75 C261.952,89.4 251.392,99.96 236.992,99.96 C222.592,99.96 212.032,89.4 212.032,75 C212.032,60.6 222.592,50.04 236.992,50.04 Z M236.992,90.84 C245.632,90.84 251.872,84.12 251.872,75 C251.872,65.88 245.632,59.16 236.992,59.16 C228.352,59.16 222.112,65.88 222.112,75 C222.112,84.12 228.352,90.84 236.992,90.84 Z M273.952,99 L273.952,51 L308.512,51 C317.152,51 322.912,56.76 322.912,65.4 C322.912,73.08 317.92,78.456 310.336,79.224 C311.008,79.992 311.68,80.856 312.064,81.528 L322.912,99 L312.064,99 L299.872,79.32 L283.552,79.32 L283.552,99 L273.952,99 Z M283.552,70.68 L308.512,70.68 C311.392,70.68 313.312,68.76 313.312,65.88 L313.312,64.44 C313.312,61.56 311.392,59.64 308.512,59.64 L283.552,59.64 L283.552,70.68 Z M344.992,79.32 L344.992,99 L335.392,99 L335.392,51 L369.952,51 C378.592,51 384.352,56.76 384.352,65.4 C384.352,73.656 378.592,79.32 369.952,79.32 L344.992,79.32 Z M344.992,59.64 L344.992,70.68 L369.952,70.68 C372.832,70.68 374.752,68.76 374.752,65.88 L374.752,64.44 C374.752,61.56 372.832,59.64 369.952,59.64 L344.992,59.64 Z" id="Corp" fill="#232323" fill-rule="nonzero"></path>
        <path d="M395.784,45 L394.128,45 L390.84,36.24 L387.552,45 L385.896,45 L381.24,32.76 L383.496,32.76 L386.784,41.64 L390.096,32.76 L391.56,32.76 L394.896,41.64 L398.208,32.76 L400.44,32.76 L395.784,45 Z M409.08,32.544 C412.44,32.544 414.984,34.944 414.984,38.88 C414.984,42.84 412.44,45.24 409.08,45.24 C407.016,45.24 405.528,44.352 404.832,43.176 L404.832,51.12 L402.768,51.12 L402.768,32.76 L404.736,32.76 L404.736,34.776 C405.432,33.504 406.968,32.544 409.08,32.544 Z M408.768,34.344 C406.536,34.344 404.856,35.76 404.856,38.544 L404.856,39.264 C404.856,42.024 406.536,43.44 408.768,43.44 C411.096,43.44 412.872,41.832 412.872,38.904 C412.872,35.952 411.096,34.344 408.768,34.344 Z" id="wp" fill="#232323" fill-rule="nonzero"></path>
    </g>
</svg>