<?xml version="1.0" encoding="UTF-8"?>
<svg width="117px" height="29px" viewBox="0 0 117 29" version="1.1" xmlns="http://www.w3.org/2000/svg" xmlns:xlink="http://www.w3.org/1999/xlink">
    <!-- Generator: Sketch 55.2 (78181) - https://sketchapp.com -->
    <title>Group 6</title>
    <desc>Created with Sketch.</desc>
    <g id="Page-1" stroke="none" stroke-width="1" fill="none" fill-rule="evenodd">
        <g id="business" transform="translate(-86.000000, -8808.000000)">
            <g id="footer" transform="translate(0.000000, 7952.000000)">
                <g id="copyright" transform="translate(86.000000, 855.000000)">
                    <g id="logo" transform="translate(0.000000, 1.000000)">
                        <g id="Group-6" transform="translate(0.640000, 0.000000)">
                            <polygon id="H" fill="#FFFFFF" fill-rule="nonzero" points="16.8 1 23.72 1 23.72 29 16.8 29 16.8 17.72 6.92 17.72 6.92 29 1.27897692e-13 29 1.27897692e-13 1 6.92 1 6.92 11.28 16.8 11.28"></polygon>
                            <g id="Group-3" transform="translate(28.360000, 0.000000)" fill="#FEEB35">
                                <rect id="Rectangle-Copy-13" x="0" y="15" width="7" height="14"></rect>
                                <rect id="Rectangle-Copy-14" x="22" y="15" width="7" height="14"></rect>
                                <polygon id="Rectangle-Copy-12--Rectangle" points="28.9998449 14.5500974 28.9998449 19.4707179 26.5104076 21.9601551 9.53984489 4.98959236 14.4895924 0.0398448916"></polygon>
                                <polygon id="Rectangle--Rectangle" points="8.8817842e-16 19.4705627 8.8817842e-16 14.5502525 14.5104076 0.0398448916 19.4601551 4.98959236 2.48959236 21.9601551"></polygon>
                            </g>
                            <polygon id="N" fill="#FFFFFF" fill-rule="nonzero" points="79.76 1 86.68 1 86.68 29 79.76 29 70.04 14.48 68.96 12.52 68.96 29 62.04 29 62.04 1 68.96 1 78.64 15.68 79.76 17.68"></polygon>
                            <polygon id="K" fill="#FFFFFF" fill-rule="nonzero" points="106.24 1 114.6 1 106.24 13.68 115.8 29 107.6 29 101.48 19.24 98.04 23.88 98.04 29 91.12 29 91.12 1 98.04 1 98.04 13.96"></polygon>
                        </g>
                    </g>
                </g>
            </g>
        </g>
    </g>
</svg>